<?xml version="1.0" encoding="utf-8"?>
<!-- Generator: Adobe Illustrator 21.0.0, SVG Export Plug-In . SVG Version: 6.00 Build 0)  -->
<svg version="1.1" id="Layer_1" xmlns="http://www.w3.org/2000/svg" xmlns:xlink="http://www.w3.org/1999/xlink" x="0px" y="0px"
	 viewBox="0 0 512 512" style="enable-background:new 0 0 512 512;" xml:space="preserve">
<g>
	<path d="M0,5.6v44.5h123.8L6.3,167.7l-6.3,7v53.6h178.1v-44.5H54.3L171.8,66.1l6.3-7V5.6H0z M378.4,5.6v416l-57.7-57.7l-31.3,31.3
		l95.3,96l16,15.3l16-15.3l95.3-96l-31.3-31.3L423,421.6V5.6H378.4z M71,272.7l-4.9,14.6L23,406.3h-0.7v1.4L1.4,465.4L0,468.9v26.4
		h44.5v-18.8l9-25.7h71l9,25.7v18.8h44.5v-26.4l-1.4-3.5l-20.9-57.7v-1.4h-0.7l-43.1-119l-4.9-14.6H71z M89,354.1l18.8,52.2H70.3
		L89,354.1z"/>
</g>
</svg>
